TITLE ""
FILE "Step4_Track17.mp3" MP3
  TRACK 01 AUDIO
    TITLE "Step4_Track17_01"
    INDEX 01 00:00:00
  TRACK 02 AUDIO
    TITLE "Step4_Track17_02"
    INDEX 01 00:00:24
  TRACK 03 AUDIO
    TITLE "Step4_Track17_03"
    INDEX 01 00:01:74
  TRACK 04 AUDIO
    TITLE "Step4_Track17_04"
    INDEX 01 00:02:56
  TRACK 05 AUDIO
    TITLE "Step4_Track17_05"
    INDEX 01 00:03:52
  TRACK 06 AUDIO
    TITLE "Step4_Track17_06"
    INDEX 01 00:03:63
  TRACK 07 AUDIO
    TITLE "Step4_Track17_07"
    INDEX 01 00:05:29
  TRACK 08 AUDIO
    TITLE "Step4_Track17_08"
    INDEX 01 00:05:49
  TRACK 09 AUDIO
    TITLE "Step4_Track17_09"
    INDEX 01 00:06:46
  TRACK 10 AUDIO
    TITLE "Step4_Track17_10"
    INDEX 01 00:06:52
  TRACK 11 AUDIO
    TITLE "Step4_Track17_11"
    INDEX 01 00:08:18
  TRACK 12 AUDIO
    TITLE "Step4_Track17_12"
    INDEX 01 00:08:45
  TRACK 13 AUDIO
    TITLE "Step4_Track17_13"
    INDEX 01 00:09:43
  TRACK 14 AUDIO
    TITLE "Step4_Track17_14"
    INDEX 01 00:09:56
  TRACK 15 AUDIO
    TITLE "Step4_Track17_15"
    INDEX 01 00:11:59
  TRACK 16 AUDIO
    TITLE "Step4_Track17_16"
    INDEX 01 00:12:12
  TRACK 17 AUDIO
    TITLE "Step4_Track17_17"
    INDEX 01 00:13:11
  TRACK 18 AUDIO
    TITLE "Step4_Track17_18"
    INDEX 01 00:13:25
  TRACK 19 AUDIO
    TITLE "Step4_Track17_19"
    INDEX 01 00:15:45
  TRACK 20 AUDIO
    TITLE "Step4_Track17_20"
    INDEX 01 00:15:59
  TRACK 21 AUDIO
    TITLE "Step4_Track17_21"
    INDEX 01 00:16:54
  TRACK 22 AUDIO
    TITLE "Step4_Track17_22"
    INDEX 01 00:16:72
  TRACK 23 AUDIO
    TITLE "Step4_Track17_23"
    INDEX 01 00:18:69
  TRACK 24 AUDIO
    TITLE "Step4_Track17_24"
    INDEX 01 00:19:17
  TRACK 25 AUDIO
    TITLE "Step4_Track17_25"
    INDEX 01 00:20:21
  TRACK 26 AUDIO
    TITLE "Step4_Track17_26"
    INDEX 01 00:20:31
  TRACK 27 AUDIO
    TITLE "Step4_Track17_27"
    INDEX 01 00:22:08
  TRACK 28 AUDIO
    TITLE "Step4_Track17_28"
    INDEX 01 00:22:35
  TRACK 29 AUDIO
    TITLE "Step4_Track17_29"
    INDEX 01 00:23:37
  TRACK 30 AUDIO
    TITLE "Step4_Track17_30"
    INDEX 01 00:23:47
  TRACK 31 AUDIO
    TITLE "Step4_Track17_31"
    INDEX 01 00:25:47
  TRACK 32 AUDIO
    TITLE "Step4_Track17_32"
    INDEX 01 00:25:67
  TRACK 33 AUDIO
    TITLE "Step4_Track17_33"
    INDEX 01 00:26:55
  TRACK 34 AUDIO
    TITLE "Step4_Track17_34"
    INDEX 01 00:27:05
  TRACK 35 AUDIO
    TITLE "Step4_Track17_35"
    INDEX 01 00:29:04
  TRACK 36 AUDIO
    TITLE "Step4_Track17_36"
    INDEX 01 00:29:16
  TRACK 37 AUDIO
    TITLE "Step4_Track17_37"
    INDEX 01 00:30:15
  TRACK 38 AUDIO
    TITLE "Step4_Track17_38"
    INDEX 01 00:30:23
  TRACK 39 AUDIO
    TITLE "Step4_Track17_39"
    INDEX 01 00:32:14
  TRACK 40 AUDIO
    TITLE "Step4_Track17_40"
    INDEX 01 00:32:30
  TRACK 41 AUDIO
    TITLE "Step4_Track17_41"
    INDEX 01 00:33:23
  TRACK 42 AUDIO
    TITLE "Step4_Track17_42"
    INDEX 01 00:33:37
  TRACK 43 AUDIO
    TITLE "Step4_Track17_43"
    INDEX 01 00:35:15
